# xmcd
#
# Track frame offsets: 
#        150
#        22130
#        44622
#        65827
#        87135
#        110445
#        133090
#        155112
#        176755
#        197467
#        219435
#        245147
#
# Disc length: 3465 seconds
#
# Revision: 3
# Processed by: cddbd v1.5.2PL0 Copyright (c) Steve Scherf et al.
# Submitted via: ExactAudioCopy v0.95a5
#
DISCID=b60d870c
DTITLE=Kim Waters - k-Sax Appeal
DYEAR=1991
DGENRE=Jazz
TTITLE0=Sax Appeal
TTITLE1=Bring The Troops Back Home
TTITLE2=Vision Of Love
TTITLE3=Springtime
TTITLE4=Twin Magic
TTITLE5=You're Still On My Mind
TTITLE6=Back To Bassax
TTITLE7=For The Love Of You
TTITLE8=Night Time Lady
TTITLE9=Mercy, Mercy, Mercy
TTITLE10=My Favorite Love Song
TTITLE11=Song For My Mother
EXTD=YEAR: 1991
EXTT0=
EXTT1=
EXTT2=
EXTT3=
EXTT4=
EXTT5=
EXTT6=
EXTT7=
EXTT8=
EXTT9=
EXTT10=
EXTT11=
PLAYORDER=
